<?xml version="1.0" encoding="UTF-8"?>
<svg xmlns="http://www.w3.org/2000/svg" xmlns:xlink="http://www.w3.org/1999/xlink" width="667px" height="667px" viewBox="0 0 375 375" version="1.1">
<g id="surface1">
<path style=" stroke:none;fill-rule:nonzero;fill:rgb(0%,0%,0%);fill-opacity:1;" d="M 57.300781 69.449219 C 56.023438 71.324219 55.800781 73.875 55.425781 93 C 55.125 104.773438 54.601562 115.875 54.148438 117.75 C 53.699219 119.625 53.324219 122.476562 53.25 124.199219 C 53.25 128.925781 55.050781 130.125 64.5 131.175781 C 74.324219 132.375 81.75 134.023438 97.5 138.75 C 104.324219 140.773438 112.125 142.949219 114.898438 143.550781 C 123.300781 145.5 132.601562 150.523438 174.375 175.875 C 177.675781 177.898438 180.523438 179.851562 180.601562 180.148438 C 180.75 180.523438 183.449219 182.550781 186.601562 184.648438 C 193.050781 189 208.726562 203.925781 217.425781 214.125 C 224.925781 222.824219 234.675781 236.773438 237.675781 243 C 240.898438 249.824219 247.648438 268.949219 247.351562 270.523438 C 247.199219 271.5 244.800781 272.398438 237.523438 274.125 C 232.273438 275.476562 227.851562 276.601562 227.699219 276.824219 C 227.550781 276.976562 227.25 278.625 227.101562 280.425781 L 226.875 283.726562 L 234 286.5 C 237.898438 288 244.875 290.699219 249.375 292.5 C 256.949219 295.425781 274.800781 303.976562 287.476562 310.726562 C 293.476562 313.949219 295.050781 314.101562 296.550781 311.851562 C 298.875 308.101562 301.648438 297.226562 304.5 281.175781 C 308.851562 255.976562 310.425781 247.800781 312.449219 240.148438 C 314.550781 232.050781 314.625 230.773438 313.125 229.5 C 312.148438 228.75 311.101562 228.675781 308.023438 229.425781 C 302.175781 230.699219 296.699219 233.550781 289.273438 239.023438 C 285.675781 241.726562 282.375 243.675781 282.074219 243.300781 C 281.773438 242.925781 280.726562 239.773438 279.824219 236.25 C 275.699219 220.800781 267.601562 204.074219 255.601562 186.148438 C 248.773438 175.949219 234.074219 156.523438 227.324219 148.726562 C 218.324219 138.375 188.023438 113.398438 175.574219 106.050781 C 159.226562 96.375 136.875 86.175781 117.75 79.648438 C 88.273438 69.523438 83.175781 68.25 69.675781 67.726562 L 58.648438 67.273438 Z M 68.625 74.925781 C 68.175781 75.75 63.824219 76.800781 63.226562 76.273438 C 62.324219 75.300781 64.050781 74.25 66.449219 74.25 C 67.875 74.25 68.925781 74.550781 68.625 74.925781 Z M 91.199219 78.824219 C 92.851562 79.574219 95.023438 80.25 96.074219 80.324219 C 98.851562 80.324219 111.976562 84.976562 112.351562 86.023438 C 112.726562 87.375 98.699219 91.351562 86.773438 93.300781 C 64.574219 96.976562 61.574219 97.050781 61.5 94.050781 C 61.5 92.398438 63.375 91.726562 73.5 89.699219 C 91.050781 86.101562 95.398438 84.449219 93.898438 81.976562 C 93.449219 81.300781 89.925781 81.75 79.875 83.625 C 72.449219 85.050781 65.398438 86.25 64.273438 86.25 C 62.398438 86.25 62.175781 86.023438 62.398438 84.148438 C 62.625 82.273438 62.925781 82.125 67.273438 81.601562 C 73.425781 80.925781 80.699219 79.050781 82.726562 77.625 C 84.601562 76.273438 86.550781 76.574219 91.199219 78.824219 Z M 127.351562 90.449219 C 136.425781 93.824219 162 106.125 162 107.175781 C 162 107.550781 160.199219 108.523438 158.023438 109.351562 C 150.675781 112.125 126.449219 119.925781 115.5 123.074219 C 104.25 126.300781 102.75 126.976562 102.75 128.699219 C 102.75 130.5 105.226562 131.175781 109.5 130.351562 C 118.800781 128.773438 150.824219 117.75 160.648438 112.800781 C 163.425781 111.375 166.5 110.25 167.398438 110.25 C 169.425781 110.25 183.148438 119.175781 182.773438 120.300781 C 182.398438 121.5 175.574219 123.375 159.148438 126.75 C 139.574219 130.726562 125.398438 134.699219 123 136.875 L 121.125 138.601562 L 115.5 136.875 C 112.425781 135.898438 104.476562 133.875 97.875 132.300781 C 83.625 129 78.675781 127.5 79.199219 126.675781 C 79.425781 126.300781 81.675781 126 84.226562 126 C 93.449219 126 109.050781 121.351562 133.050781 111.523438 C 138.148438 109.425781 142.5 106.199219 142.5 104.476562 C 142.5 102.675781 139.574219 103.5 122.773438 110.324219 C 105.75 117.148438 97.425781 119.476562 86.175781 120.75 C 76.949219 121.800781 76.050781 122.175781 76.273438 124.875 C 76.425781 126.75 76.273438 126.898438 74.023438 126.523438 C 72.675781 126.300781 69 125.851562 65.773438 125.550781 C 59.324219 125.023438 58.273438 124.199219 60.300781 121.199219 C 61.199219 119.699219 62.851562 119.101562 68.773438 117.75 C 78.898438 115.5 112.425781 105.523438 123.601562 101.398438 C 129.074219 99.375 132.75 97.648438 132.75 97.050781 C 132.75 95.625 132.300781 95.699219 124.351562 98.324219 C 120.523438 99.601562 105.375 103.648438 90.75 107.324219 C 60.601562 114.898438 62.25 114.824219 62.25 107.550781 C 62.25 103.648438 63.523438 101.25 65.476562 101.25 C 75.75 101.25 110.023438 92.851562 114.675781 89.175781 C 117.148438 87.148438 119.023438 87.375 127.351562 90.449219 Z M 191.101562 125.25 C 194.476562 127.648438 194.773438 128.324219 193.273438 129.601562 C 191.851562 130.800781 177.976562 134.476562 157.5 139.125 C 147.449219 141.449219 138.824219 143.625 138.449219 144 C 137.25 145.199219 134.851562 144.824219 131.324219 142.949219 C 128.324219 141.375 128.101562 141.148438 129.449219 140.476562 C 130.199219 140.023438 142.351562 136.574219 156.375 132.75 C 170.398438 129 182.925781 125.25 184.125 124.425781 C 187.125 122.550781 187.5 122.625 191.101562 125.25 Z M 205.125 136.875 C 208.199219 139.800781 210 141.976562 209.625 142.351562 C 207.449219 144.226562 198.898438 146.550781 184.875 148.875 C 176.25 150.375 167.476562 152.023438 165.449219 152.476562 C 161.023438 153.601562 159.523438 155.398438 161.398438 157.199219 C 162.523438 158.324219 163.273438 158.324219 171.898438 156.75 C 202.351562 151.351562 205.273438 150.601562 210.449219 146.625 C 211.800781 145.574219 213.226562 144.75 213.523438 144.75 C 213.898438 144.75 215.699219 146.25 217.5 148.125 L 220.726562 151.425781 L 218.925781 152.101562 C 217.949219 152.476562 210.375 154.050781 202.125 155.625 C 180 159.675781 174 161.101562 171.898438 162.75 C 170.925781 163.574219 169.726562 164.25 169.273438 164.25 C 168.148438 164.25 144 149.773438 144 149.101562 C 144 148.425781 149.101562 146.925781 171.300781 141 C 180.75 138.523438 190.726562 135.449219 193.425781 134.25 C 196.125 133.050781 198.75 132.074219 199.125 132.074219 C 199.574219 132.074219 202.199219 134.25 205.125 136.875 Z M 226.425781 158.699219 C 227.773438 160.199219 228.675781 161.773438 228.523438 162.226562 C 228.300781 163.050781 223.800781 163.949219 200.625 167.925781 C 180.449219 171.375 179.023438 171.523438 177.074219 169.425781 C 175.726562 167.925781 175.648438 167.625 176.625 167.023438 C 177.226562 166.726562 186.601562 164.398438 197.476562 162 C 208.273438 159.523438 218.175781 157.199219 219.375 156.824219 C 223.125 155.699219 224.023438 155.925781 226.425781 158.699219 Z M 233.398438 167.398438 C 234 167.925781 236.023438 170.550781 237.75 173.25 C 239.550781 175.949219 242.175781 179.625 243.523438 181.425781 C 244.875 183.300781 245.773438 185.023438 245.476562 185.324219 C 244.726562 186.074219 231.449219 187.273438 214.875 188.175781 C 203.398438 188.773438 202.800781 188.699219 201.226562 187.273438 C 198.976562 185.25 199.050781 183.75 201.375 183.75 C 206.925781 183.75 235.351562 181.351562 236.773438 180.75 C 237.675781 180.375 238.800781 179.398438 239.25 178.5 C 240 177 239.851562 177 232.351562 177 C 225.226562 177.074219 211.425781 177.75 196.875 178.875 C 191.476562 179.25 190.648438 179.175781 189.074219 177.75 C 188.101562 176.925781 187.425781 176.023438 187.648438 175.800781 C 187.875 175.648438 195.976562 173.925781 205.574219 172.125 C 215.25 170.324219 224.851562 168.300781 226.875 167.699219 C 231.675781 166.351562 231.976562 166.351562 233.398438 167.398438 Z M 251.175781 192 C 252.074219 193.648438 252.675781 195.300781 252.449219 195.601562 C 251.851562 196.648438 230.476562 198.226562 223.5 197.851562 C 219.976562 197.625 216.074219 197.699219 214.726562 198 C 212.550781 198.523438 212.023438 198.300781 210.675781 196.574219 L 209.101562 194.625 L 220.273438 193.726562 C 231 192.824219 242.175781 191.101562 245.550781 189.75 C 248.476562 188.550781 249.449219 189 251.175781 192 Z M 257.625 202.5 C 258.675781 204.148438 259.5 205.800781 259.5 206.25 C 259.5 207.675781 255.375 207.976562 242.101562 207.523438 C 231.523438 207.148438 228 207.300781 225.675781 208.125 C 222.675781 209.175781 222.601562 209.175781 220.5 206.851562 C 219.300781 205.574219 218.476562 204.300781 218.625 204 C 218.773438 203.699219 224.476562 203.25 231.148438 203.023438 C 239.851562 202.648438 244.800781 202.125 248.25 201.074219 C 255.074219 199.050781 255.449219 199.125 257.625 202.5 Z M 262.648438 212.023438 C 264.300781 213.523438 264.375 215.699219 262.800781 216.300781 C 261.300781 216.898438 237.300781 216.75 231.375 216.074219 C 227.625 215.699219 226.875 215.398438 226.648438 214.125 C 226.425781 212.625 226.800781 212.550781 239.773438 212.476562 C 247.125 212.476562 254.625 212.101562 256.5 211.648438 C 261.226562 210.601562 261.074219 210.601562 262.648438 212.023438 Z M 266.476562 220.726562 C 267.226562 221.175781 267.898438 222.601562 267.976562 223.800781 L 268.125 225.976562 L 259.125 225.824219 C 245.851562 225.675781 235.273438 224.925781 234.226562 224.101562 C 231.601562 222 233.324219 221.550781 244.351562 221.398438 C 253.199219 221.25 261.375 220.648438 264.824219 219.824219 C 265.050781 219.824219 265.800781 220.199219 266.476562 220.726562 Z M 270.523438 231.375 C 272.925781 233.175781 269.476562 233.851562 255.375 234.300781 C 241.425781 234.824219 241.125 234.824219 240.148438 233.25 C 239.625 232.425781 239.398438 231.375 239.699219 230.925781 C 240.375 229.875 269.023438 230.25 270.523438 231.375 Z M 272.851562 238.648438 C 274.199219 240 273.976562 242.773438 272.476562 243.074219 C 271.726562 243.300781 265.199219 243.300781 257.925781 243.148438 C 245.324219 242.925781 244.726562 242.773438 245.023438 241.425781 C 245.25 240.675781 246 240 246.675781 239.925781 C 247.351562 239.925781 251.625 239.476562 256.125 238.949219 C 266.925781 237.601562 271.726562 237.523438 272.851562 238.648438 Z M 303.824219 241.875 C 303.824219 242.25 302.25 242.773438 300.375 243 C 297.976562 243.300781 297 243.148438 297 242.550781 C 297 241.574219 299.324219 240.824219 302.101562 241.050781 C 303 241.050781 303.824219 241.425781 303.824219 241.875 Z M 275.625 250.5 C 275.625 252.300781 275.476562 252.375 267.375 253.273438 C 262.875 253.726562 256.875 254.175781 254.175781 254.175781 C 249.601562 254.25 249.148438 254.101562 248.699219 252.523438 C 247.800781 249 247.648438 249.074219 260.476562 248.773438 C 267.148438 248.699219 273.300781 248.550781 274.125 248.625 C 275.25 248.625 275.625 249.148438 275.625 250.5 Z M 301.949219 249.226562 C 303 250.199219 301.726562 250.5 294.449219 251.023438 C 287.25 251.476562 285.523438 250.875 288.601562 249 C 290.023438 248.175781 301.050781 248.25 301.949219 249.226562 Z M 300.75 258 C 300.75 258.449219 300 259.125 299.101562 259.5 C 295.125 261.148438 255.898438 264.824219 253.273438 263.773438 C 251.773438 263.25 251.550781 260.324219 252.976562 259.875 C 254.476562 259.351562 284.773438 257.476562 293.101562 257.324219 C 297.898438 257.324219 300.75 257.550781 300.75 258 Z M 298.050781 266.699219 C 298.648438 266.925781 298.949219 267.601562 298.726562 268.199219 C 298.425781 268.949219 296.925781 269.25 292.875 269.25 C 289.800781 269.25 284.023438 269.925781 279.976562 270.675781 C 265.425781 273.601562 258 273.523438 260.925781 270.523438 C 261.601562 269.773438 276.375 268.050781 295.648438 266.324219 C 296.324219 266.324219 297.375 266.476562 298.050781 266.699219 Z M 297.375 276.375 C 297.375 278.023438 294.226562 279.375 287.25 280.574219 C 264.523438 284.550781 256.273438 285.375 249.449219 284.175781 C 243.601562 283.273438 241.199219 282.300781 241.875 281.25 C 242.851562 279.75 248.550781 278.851562 261.75 278.25 C 269.398438 277.949219 277.351562 277.273438 279.375 276.75 C 284.101562 275.625 292.199219 274.648438 295.125 274.800781 C 296.851562 274.875 297.375 275.25 297.375 276.375 Z M 286.125 287.175781 C 286.351562 287.550781 286.273438 288.074219 285.976562 288.226562 C 284.851562 288.898438 275.625 289.574219 276.226562 288.976562 C 276.75 288.523438 281.851562 287.101562 285.148438 286.574219 C 285.449219 286.574219 285.824219 286.800781 286.125 287.175781 Z M 294.75 293.550781 C 294.75 295.199219 294.226562 295.5 289.050781 296.699219 C 283.199219 297.976562 277.273438 297.824219 275.773438 296.324219 C 275.324219 295.875 275.101562 295.351562 275.324219 295.199219 C 275.773438 294.75 290.699219 291.898438 293.101562 291.824219 C 294.375 291.75 294.75 292.125 294.75 293.550781 Z M 292.5 302.625 C 292.5 304.199219 291.226562 304.648438 289.5 303.75 C 287.550781 302.699219 287.625 301.648438 289.726562 301.351562 C 291.824219 300.976562 292.5 301.273438 292.5 302.625 Z M 292.5 302.625 "/>
</g>
</svg>
