<?xml version="1.0" encoding="UTF-8"?>
<svg xmlns="http://www.w3.org/2000/svg" xmlns:xlink="http://www.w3.org/1999/xlink" width="231px" height="231px" viewBox="0 0 231 231" version="1.1">
<g id="surface1">
<path style=" stroke:none;fill-rule:nonzero;fill:rgb(0%,0%,0%);fill-opacity:1;" d="M 107.277344 7.070312 C 107 7.347656 106.722656 10.164062 106.628906 13.257812 C 106.492188 18.296875 106.585938 18.988281 107.367188 19.726562 C 108.199219 20.511719 108.199219 20.511719 107.738281 19.636719 C 107.460938 19.035156 107.414062 17.140625 107.648438 14.320312 C 108.246094 7.390625 107.597656 8.085938 113.976562 7.945312 C 118.042969 7.851562 119.660156 7.992188 119.980469 8.410156 C 120.765625 9.378906 120.996094 18.34375 120.304688 19.3125 C 119.84375 19.960938 118.6875 20.140625 114.019531 20.375 C 110.878906 20.511719 109.265625 20.652344 110.417969 20.699219 C 113.144531 20.835938 113.46875 21.113281 113.46875 23.421875 L 113.511719 25.410156 L 107 25.457031 C 103.394531 25.457031 99.5625 25.640625 98.40625 25.78125 L 96.328125 26.101562 L 96.1875 28.921875 L 96.050781 31.738281 L 106.953125 32.570312 L 109.308594 30.445312 C 111.941406 27.996094 113.976562 27.257812 117.992188 27.257812 C 121.414062 27.257812 124.277344 28.550781 125.988281 30.90625 C 126.679688 31.832031 127.234375 32.617188 127.28125 32.617188 C 127.28125 32.753906 133.75 31.878906 134.8125 31.648438 C 135.550781 31.460938 135.828125 31.046875 135.828125 30.214844 C 135.828125 29.011719 135.828125 29.011719 132.5 29.152344 L 129.128906 29.335938 L 128.851562 25.640625 L 122.199219 25.78125 L 115.5 25.964844 L 115.5 21.253906 L 117.253906 21.253906 C 118.179688 21.253906 119.660156 20.835938 120.492188 20.328125 L 121.96875 19.402344 L 121.96875 14.273438 C 121.96875 11.503906 121.785156 8.777344 121.503906 8.316406 C 121.273438 7.851562 120.398438 7.253906 119.609375 6.976562 C 117.53125 6.234375 107.878906 6.285156 107.277344 7.070312 Z M 107.277344 7.070312 "/>
<path style=" stroke:none;fill-rule:nonzero;fill:rgb(0%,0%,0%);fill-opacity:1;" d="M 109.125 14.089844 L 109.265625 18.710938 L 112.957031 18.757812 C 114.992188 18.804688 117.253906 18.757812 117.949219 18.617188 L 119.242188 18.386719 L 119.105469 13.953125 L 118.964844 9.472656 L 108.984375 9.472656 Z M 117.253906 11.550781 C 117.394531 12.890625 115.59375 15.847656 114.53125 16.078125 C 113.328125 16.308594 110.648438 14.183594 110.507812 12.84375 C 110.328125 11.457031 111.433594 10.859375 112.820312 11.59375 C 113.605469 12.011719 113.929688 11.917969 114.761719 11.132812 C 116.007812 9.886719 117.070312 10.070312 117.253906 11.550781 Z M 117.253906 11.550781 "/>
<path style=" stroke:none;fill-rule:nonzero;fill:rgb(0%,0%,0%);fill-opacity:1;" d="M 98.40625 24.023438 C 98.40625 24.253906 99.238281 24.484375 100.253906 24.484375 C 101.269531 24.484375 102.101562 24.253906 102.101562 24.023438 C 102.101562 23.746094 101.269531 23.5625 100.253906 23.5625 C 99.238281 23.5625 98.40625 23.746094 98.40625 24.023438 Z M 98.40625 24.023438 "/>
<path style=" stroke:none;fill-rule:nonzero;fill:rgb(0%,0%,0%);fill-opacity:1;" d="M 129.820312 26.472656 C 129.820312 28.042969 130.007812 28.089844 132.730469 27.582031 C 135.597656 27.027344 135.460938 27.121094 135.089844 26.152344 C 134.859375 25.59375 134.210938 25.410156 132.316406 25.410156 C 130.007812 25.410156 129.820312 25.5 129.820312 26.472656 Z M 129.820312 26.472656 "/>
<path style=" stroke:none;fill-rule:nonzero;fill:rgb(0%,0%,0%);fill-opacity:1;" d="M 115.269531 29.105469 C 115.40625 29.335938 115.960938 29.566406 116.46875 29.566406 C 116.929688 29.566406 117.347656 29.335938 117.347656 29.105469 C 117.347656 28.828125 116.792969 28.644531 116.148438 28.644531 C 115.5 28.644531 115.082031 28.828125 115.269531 29.105469 Z M 115.269531 29.105469 "/>
<path style=" stroke:none;fill-rule:nonzero;fill:rgb(0%,0%,0%);fill-opacity:1;" d="M 113.421875 29.523438 C 113.144531 30.03125 113.835938 30.585938 114.300781 30.167969 C 114.714844 29.753906 114.621094 29.105469 114.160156 29.105469 C 113.882812 29.105469 113.605469 29.292969 113.421875 29.523438 Z M 113.421875 29.523438 "/>
<path style=" stroke:none;fill-rule:nonzero;fill:rgb(0%,0%,0%);fill-opacity:1;" d="M 119.105469 29.429688 C 119.425781 29.566406 119.84375 29.523438 119.980469 29.382812 C 120.167969 29.242188 119.890625 29.105469 119.378906 29.152344 C 118.875 29.152344 118.734375 29.292969 119.105469 29.429688 Z M 119.105469 29.429688 "/>
<path style=" stroke:none;fill-rule:nonzero;fill:rgb(0%,0%,0%);fill-opacity:1;" d="M 121.042969 29.984375 C 121.042969 30.539062 122.335938 31 122.660156 30.539062 C 122.800781 30.304688 122.566406 29.984375 122.152344 29.84375 C 121.183594 29.476562 121.042969 29.476562 121.042969 29.984375 Z M 121.042969 29.984375 "/>
<path style=" stroke:none;fill-rule:nonzero;fill:rgb(0%,0%,0%);fill-opacity:1;" d="M 111.109375 30.628906 C 110.507812 31.09375 110.417969 31.367188 110.832031 31.597656 C 111.390625 31.96875 112.726562 31.136719 112.726562 30.445312 C 112.726562 29.84375 112.125 29.9375 111.109375 30.628906 Z M 111.109375 30.628906 "/>
<path style=" stroke:none;fill-rule:nonzero;fill:rgb(0%,0%,0%);fill-opacity:1;" d="M 114.070312 31.648438 C 111.527344 33.035156 110.417969 36.3125 111.527344 38.992188 C 112.867188 42.179688 116.980469 43.429688 120.027344 41.582031 C 121.921875 40.425781 123.539062 37.050781 123.121094 35.160156 C 122.382812 31.832031 117.300781 29.894531 114.070312 31.648438 Z M 114.070312 31.648438 "/>
<path style=" stroke:none;fill-rule:nonzero;fill:rgb(0%,0%,0%);fill-opacity:1;" d="M 123.445312 31.925781 C 123.539062 32.25 123.910156 32.617188 124.234375 32.710938 C 124.601562 32.847656 124.785156 32.664062 124.648438 32.292969 C 124.554688 31.96875 124.183594 31.597656 123.863281 31.507812 C 123.492188 31.367188 123.308594 31.554688 123.445312 31.925781 Z M 123.445312 31.925781 "/>
<path style=" stroke:none;fill-rule:nonzero;fill:rgb(0%,0%,0%);fill-opacity:1;" d="M 108.984375 32.617188 C 108.476562 33.21875 108.523438 33.402344 109.078125 33.773438 C 110.003906 34.328125 110.277344 34.28125 110.558594 33.542969 C 110.972656 32.480469 109.726562 31.738281 108.984375 32.617188 Z M 108.984375 32.617188 "/>
<path style=" stroke:none;fill-rule:nonzero;fill:rgb(0%,0%,0%);fill-opacity:1;" d="M 95.910156 33.679688 C 95.449219 34.417969 96.140625 34.558594 101.5 34.789062 C 105.242188 34.972656 106.261719 34.878906 106.445312 34.371094 C 106.628906 33.867188 106.167969 33.726562 104.226562 33.726562 C 102.886719 33.726562 100.53125 33.585938 99.007812 33.449219 C 97.15625 33.265625 96.097656 33.308594 95.910156 33.679688 Z M 95.910156 33.679688 "/>
<path style=" stroke:none;fill-rule:nonzero;fill:rgb(0%,0%,0%);fill-opacity:1;" d="M 134.8125 33.585938 C 135.136719 33.726562 135.550781 33.679688 135.691406 33.542969 C 135.875 33.402344 135.597656 33.265625 135.089844 33.308594 C 134.578125 33.308594 134.441406 33.449219 134.8125 33.585938 Z M 134.8125 33.585938 "/>
<path style=" stroke:none;fill-rule:nonzero;fill:rgb(0%,0%,0%);fill-opacity:1;" d="M 124.277344 34.1875 C 124.277344 34.417969 124.695312 34.648438 125.246094 34.648438 C 125.757812 34.648438 126.03125 34.417969 125.894531 34.1875 C 125.757812 33.910156 125.296875 33.726562 124.925781 33.726562 C 124.554688 33.726562 124.277344 33.910156 124.277344 34.1875 Z M 124.277344 34.1875 "/>
<path style=" stroke:none;fill-rule:nonzero;fill:rgb(0%,0%,0%);fill-opacity:1;" d="M 127.882812 34.046875 C 128.207031 34.1875 128.621094 34.140625 128.757812 34.003906 C 128.945312 33.867188 128.667969 33.726562 128.15625 33.773438 C 127.652344 33.773438 127.511719 33.910156 127.882812 34.046875 Z M 127.882812 34.046875 "/>
<path style=" stroke:none;fill-rule:nonzero;fill:rgb(0%,0%,0%);fill-opacity:1;" d="M 107.460938 35.390625 C 106.90625 36.777344 107.183594 37.421875 108.292969 37.421875 C 109.078125 37.421875 109.445312 37.097656 109.585938 36.3125 C 109.910156 34.742188 108.015625 33.910156 107.460938 35.390625 Z M 107.460938 35.390625 "/>
<path style=" stroke:none;fill-rule:nonzero;fill:rgb(0%,0%,0%);fill-opacity:1;" d="M 127.976562 35.480469 C 127.976562 35.667969 129.5 35.757812 131.347656 35.667969 C 136.289062 35.433594 136.613281 35.203125 132.039062 35.160156 C 129.773438 35.160156 127.976562 35.296875 127.976562 35.480469 Z M 127.976562 35.480469 "/>
<path style=" stroke:none;fill-rule:nonzero;fill:rgb(0%,0%,0%);fill-opacity:1;" d="M 95.632812 35.992188 C 95.632812 36.40625 100.667969 36.128906 101.132812 35.757812 C 101.226562 35.667969 100.070312 35.574219 98.5 35.574219 C 96.925781 35.574219 95.632812 35.757812 95.632812 35.992188 Z M 95.632812 35.992188 "/>
<path style=" stroke:none;fill-rule:nonzero;fill:rgb(0%,0%,0%);fill-opacity:1;" d="M 124.738281 36.914062 C 124.738281 37.375 125.0625 37.882812 125.433594 38.070312 C 125.941406 38.253906 126.125 38.023438 126.125 37.191406 C 126.125 36.453125 125.847656 36.035156 125.433594 36.035156 C 125.0625 36.035156 124.738281 36.453125 124.738281 36.914062 Z M 124.738281 36.914062 "/>
<path style=" stroke:none;fill-rule:nonzero;fill:rgb(0%,0%,0%);fill-opacity:1;" d="M 100.164062 36.820312 C 97.667969 36.914062 95.632812 37.191406 95.632812 37.421875 C 95.632812 37.652344 97.804688 37.882812 100.484375 37.976562 C 104.875 38.113281 105.335938 38.023438 105.335938 37.285156 C 105.335938 36.867188 105.199219 36.546875 105.011719 36.589844 C 104.78125 36.636719 102.609375 36.777344 100.164062 36.820312 Z M 100.164062 36.820312 "/>
<path style=" stroke:none;fill-rule:nonzero;fill:rgb(0%,0%,0%);fill-opacity:1;" d="M 127.976562 37.558594 C 127.976562 38.253906 128.296875 38.347656 130.421875 38.113281 C 137.074219 37.375 137.769531 36.726562 131.898438 36.726562 C 128.4375 36.726562 127.976562 36.820312 127.976562 37.558594 Z M 127.976562 37.558594 "/>
<path style=" stroke:none;fill-rule:nonzero;fill:rgb(0%,0%,0%);fill-opacity:1;" d="M 107.046875 39.824219 C 107.183594 40.65625 107.367188 41.394531 107.460938 41.488281 C 107.785156 41.949219 109.957031 39.964844 109.957031 39.222656 C 109.957031 38.53125 109.632812 38.347656 108.339844 38.347656 C 106.765625 38.347656 106.765625 38.390625 107.046875 39.824219 Z M 107.046875 39.824219 "/>
<path style=" stroke:none;fill-rule:nonzero;fill:rgb(0%,0%,0%);fill-opacity:1;" d="M 95.632812 39.269531 C 95.632812 39.5 95.957031 39.59375 96.328125 39.453125 C 96.695312 39.269531 97.019531 39.085938 97.019531 38.992188 C 97.019531 38.902344 96.695312 38.808594 96.328125 38.808594 C 95.957031 38.808594 95.632812 38.992188 95.632812 39.269531 Z M 95.632812 39.269531 "/>
<path style=" stroke:none;fill-rule:nonzero;fill:rgb(0%,0%,0%);fill-opacity:1;" d="M 104.410156 39.269531 C 104.410156 39.5 104.640625 39.734375 104.875 39.734375 C 105.152344 39.734375 105.335938 39.5 105.335938 39.269531 C 105.335938 38.992188 105.152344 38.808594 104.875 38.808594 C 104.640625 38.808594 104.410156 38.992188 104.410156 39.269531 Z M 104.410156 39.269531 "/>
<path style=" stroke:none;fill-rule:nonzero;fill:rgb(0%,0%,0%);fill-opacity:1;" d="M 123.953125 39.546875 C 123.539062 40.609375 124.832031 41.300781 125.527344 40.332031 C 125.847656 39.917969 125.988281 39.40625 125.847656 39.222656 C 125.433594 38.53125 124.277344 38.761719 123.953125 39.546875 Z M 123.953125 39.546875 "/>
<path style=" stroke:none;fill-rule:nonzero;fill:rgb(0%,0%,0%);fill-opacity:1;" d="M 131.394531 39.132812 C 128.066406 39.269531 127.605469 39.40625 127.375 40.238281 C 127.144531 41.027344 127.28125 41.164062 128.34375 40.933594 C 129.039062 40.792969 130.976562 40.5625 132.730469 40.425781 C 134.949219 40.195312 135.828125 39.917969 135.828125 39.453125 C 135.828125 39.085938 135.691406 38.851562 135.503906 38.902344 C 135.273438 38.945312 133.425781 39.085938 131.394531 39.132812 Z M 131.394531 39.132812 "/>
<path style=" stroke:none;fill-rule:nonzero;fill:rgb(0%,0%,0%);fill-opacity:1;" d="M 95.496094 40.519531 C 94.617188 41.351562 95.632812 41.582031 100.578125 41.582031 C 103.671875 41.582031 105.796875 41.394531 105.566406 41.164062 C 105.011719 40.703125 95.910156 40.054688 95.496094 40.519531 Z M 95.496094 40.519531 "/>
<path style=" stroke:none;fill-rule:nonzero;fill:rgb(0%,0%,0%);fill-opacity:1;" d="M 109.214844 41.765625 C 107.878906 42.875 107.878906 42.875 108.800781 43.890625 C 109.632812 44.8125 109.726562 44.859375 110.328125 44.03125 C 111.621094 42.273438 111.804688 41.671875 111.15625 41.164062 C 110.648438 40.75 110.234375 40.886719 109.214844 41.765625 Z M 109.214844 41.765625 "/>
<path style=" stroke:none;fill-rule:nonzero;fill:rgb(0%,0%,0%);fill-opacity:1;" d="M 122.292969 41.902344 C 122.152344 42.132812 122.199219 42.59375 122.429688 42.917969 C 122.890625 43.707031 124.414062 43.195312 124.183594 42.363281 C 123.910156 41.671875 122.617188 41.351562 122.292969 41.902344 Z M 122.292969 41.902344 "/>
<path style=" stroke:none;fill-rule:nonzero;fill:rgb(0%,0%,0%);fill-opacity:1;" d="M 131.117188 41.902344 C 127.882812 42.042969 126.496094 42.273438 126.125 42.78125 C 125.800781 43.148438 125.617188 43.566406 125.757812 43.707031 C 125.894531 43.796875 128.207031 43.796875 130.929688 43.613281 C 135.273438 43.335938 135.828125 43.195312 135.828125 42.457031 C 135.828125 41.949219 135.78125 41.625 135.734375 41.671875 C 135.640625 41.71875 133.609375 41.855469 131.117188 41.902344 Z M 131.117188 41.902344 "/>
<path style=" stroke:none;fill-rule:nonzero;fill:rgb(0%,0%,0%);fill-opacity:1;" d="M 95.171875 43.195312 C 95.171875 43.796875 96.140625 43.890625 100.945312 43.890625 C 105.84375 43.890625 106.675781 43.796875 106.445312 43.195312 C 106.214844 42.644531 105.105469 42.503906 100.667969 42.503906 C 96.097656 42.503906 95.171875 42.644531 95.171875 43.195312 Z M 95.171875 43.195312 "/>
<path style=" stroke:none;fill-rule:nonzero;fill:rgb(0%,0%,0%);fill-opacity:1;" d="M 111.527344 43.9375 C 110.695312 45.554688 110.695312 45.554688 112.40625 45.96875 C 113.605469 46.292969 113.652344 46.199219 113.652344 44.675781 C 113.652344 42.457031 112.496094 42.089844 111.527344 43.9375 Z M 111.527344 43.9375 "/>
<path style=" stroke:none;fill-rule:nonzero;fill:rgb(0%,0%,0%);fill-opacity:1;" d="M 120.398438 43.382812 C 120.074219 43.890625 120.535156 45.273438 120.996094 45.273438 C 121.828125 45.273438 122.382812 44.167969 121.921875 43.566406 C 121.320312 42.875 120.722656 42.78125 120.398438 43.382812 Z M 120.398438 43.382812 "/>
<path style=" stroke:none;fill-rule:nonzero;fill:rgb(0%,0%,0%);fill-opacity:1;" d="M 115.039062 44.074219 C 115.039062 44.351562 114.898438 45.042969 114.761719 45.597656 C 114.53125 46.476562 114.667969 46.660156 115.636719 46.660156 C 116.5625 46.660156 116.839844 46.386719 116.980469 45.324219 C 117.164062 44.210938 116.980469 43.9375 116.101562 43.75 C 115.5 43.660156 115.039062 43.796875 115.039062 44.074219 Z M 115.039062 44.074219 "/>
<path style=" stroke:none;fill-rule:nonzero;fill:rgb(0%,0%,0%);fill-opacity:1;" d="M 117.8125 45.042969 C 117.8125 46.246094 118.132812 46.386719 119.378906 45.921875 C 119.933594 45.691406 119.980469 45.507812 119.519531 44.769531 C 118.734375 43.519531 117.8125 43.660156 117.8125 45.042969 Z M 117.8125 45.042969 "/>
<path style=" stroke:none;fill-rule:nonzero;fill:rgb(0%,0%,0%);fill-opacity:1;" d="M 95.171875 45.183594 C 95.171875 46.105469 96.742188 47.585938 98.175781 48.003906 C 99.050781 48.234375 102.65625 48.324219 106.351562 48.140625 C 114.34375 47.816406 113.007812 47.308594 102.933594 46.847656 C 99.144531 46.707031 96.097656 46.386719 96.097656 46.15625 C 96.097656 45.921875 98.820312 45.738281 102.148438 45.738281 C 106.027344 45.738281 108.0625 45.554688 107.878906 45.273438 C 107.554688 44.722656 95.171875 44.628906 95.171875 45.183594 Z M 95.171875 45.183594 "/>
<path style=" stroke:none;fill-rule:nonzero;fill:rgb(0%,0%,0%);fill-opacity:1;" d="M 132.039062 45.136719 C 132.59375 45.230469 133.425781 45.230469 133.886719 45.136719 C 134.304688 45 133.84375 44.90625 132.824219 44.953125 C 131.808594 44.953125 131.4375 45.042969 132.039062 45.136719 Z M 132.039062 45.136719 "/>
<path style=" stroke:none;fill-rule:nonzero;fill:rgb(0%,0%,0%);fill-opacity:1;" d="M 123.402344 45.691406 C 122.984375 45.96875 123.816406 46.015625 125.710938 45.875 C 127.328125 45.738281 128.757812 45.554688 128.851562 45.460938 C 129.3125 45.042969 124 45.324219 123.402344 45.691406 Z M 123.402344 45.691406 "/>
<path style=" stroke:none;fill-rule:nonzero;fill:rgb(0%,0%,0%);fill-opacity:1;" d="M 133.472656 46.847656 C 133.378906 46.9375 130.101562 47.125 126.21875 47.261719 C 122.335938 47.402344 119.011719 47.585938 118.875 47.773438 C 118.6875 47.910156 121.785156 48.046875 125.710938 48.046875 C 131.300781 48.046875 133.054688 47.910156 133.796875 47.355469 C 134.257812 46.984375 134.441406 46.660156 134.164062 46.660156 C 133.886719 46.660156 133.5625 46.753906 133.472656 46.847656 Z M 133.472656 46.847656 "/>
<path style=" stroke:none;fill-rule:nonzero;fill:rgb(0%,0%,0%);fill-opacity:1;" d="M 78.214844 70.457031 C 75.167969 71.75 74.566406 74.890625 76.921875 77.246094 C 77.523438 77.847656 80.621094 79.742188 83.808594 81.453125 C 86.992188 83.207031 89.859375 85.054688 90.136719 85.5625 C 90.828125 86.808594 90.273438 88.566406 89.027344 89.257812 C 87.875 89.90625 82.191406 90 78.863281 89.488281 C 76.046875 89.027344 73.597656 86.949219 73.179688 84.730469 C 72.855469 82.929688 72.351562 82.746094 71.609375 84.082031 C 70.457031 86.257812 74.335938 89.90625 79.09375 91.015625 C 86.347656 92.769531 92.398438 90.875 92.398438 86.902344 C 92.398438 84.5 90.597656 82.976562 83.714844 79.464844 C 77.660156 76.414062 76.136719 74.890625 77.109375 73.042969 C 78.261719 70.917969 84.132812 70.457031 87.085938 72.304688 C 88.9375 73.410156 90.550781 73.78125 90.550781 73.085938 C 90.550781 72.394531 88.519531 70.824219 86.902344 70.269531 C 84.777344 69.578125 80.019531 69.667969 78.214844 70.457031 Z M 78.214844 70.457031 "/>
<path style=" stroke:none;fill-rule:nonzero;fill:rgb(0%,0%,0%);fill-opacity:1;" d="M 114.945312 76.230469 C 113.746094 76.648438 112.636719 77.109375 112.496094 77.246094 C 112.082031 77.660156 113.097656 84.222656 114.070312 87.316406 C 115.269531 91.152344 115.730469 91.890625 116.46875 91.152344 C 116.886719 90.734375 116.699219 89.628906 115.777344 86.394531 C 113.929688 80.019531 114.207031 77.984375 117.023438 77.015625 C 117.761719 76.738281 120.582031 77.152344 123.03125 77.890625 C 124.183594 78.261719 124.046875 76.878906 122.800781 76.046875 C 121.460938 75.074219 117.8125 75.167969 114.945312 76.230469 Z M 114.945312 76.230469 "/>
<path style=" stroke:none;fill-rule:nonzero;fill:rgb(0%,0%,0%);fill-opacity:1;" d="M 128.480469 76 C 127.652344 76.367188 126.542969 76.691406 126.078125 76.691406 C 125.339844 76.691406 125.203125 77.015625 125.203125 78.539062 C 125.203125 82.929688 127.789062 91.9375 128.898438 91.246094 C 129.542969 90.828125 129.453125 89.117188 128.667969 86.808594 C 125.757812 78.679688 127.1875 75.953125 133.515625 77.429688 C 136.613281 78.125 137.027344 78.078125 136.566406 76.921875 C 135.964844 75.304688 131.347656 74.796875 128.480469 76 Z M 128.480469 76 "/>
<path style=" stroke:none;fill-rule:nonzero;fill:rgb(0%,0%,0%);fill-opacity:1;" d="M 151.535156 80.433594 C 151.535156 85.375 151.445312 85.839844 150.519531 86.71875 C 145.113281 91.617188 140.496094 88.148438 139.292969 78.355469 C 139.109375 76.921875 138.785156 75.765625 138.601562 75.765625 C 137.351562 75.765625 137.675781 81.496094 139.0625 84.824219 C 140.265625 87.59375 142.574219 90 144.511719 90.550781 C 145.992188 90.921875 146.546875 90.828125 148.578125 89.859375 C 151.304688 88.519531 152.277344 88.425781 152.644531 89.441406 C 153.523438 91.707031 152.089844 103.441406 150.660156 105.335938 C 150.195312 105.984375 149.316406 106.765625 148.671875 107.136719 C 147.007812 108.0625 145.066406 107.183594 141.742188 103.996094 L 139.0625 101.5 L 139.0625 102.84375 C 139.0625 103.582031 139.382812 104.640625 139.753906 105.199219 C 140.863281 106.765625 144.792969 109.035156 146.960938 109.308594 C 148.765625 109.539062 149.226562 109.445312 150.472656 108.382812 C 152.277344 106.859375 153.152344 104.640625 153.890625 99.792969 C 154.539062 95.21875 154.214844 85.746094 153.152344 79.972656 C 152.089844 74.058594 151.535156 74.199219 151.535156 80.433594 Z M 151.535156 80.433594 "/>
<path style=" stroke:none;fill-rule:nonzero;fill:rgb(0%,0%,0%);fill-opacity:1;" d="M 101.410156 76.648438 C 94.988281 78.214844 92.261719 84.363281 96.003906 88.796875 C 100.855469 94.570312 111.433594 90.136719 110.277344 82.835938 C 109.863281 80.480469 107.828125 77.660156 106.027344 76.878906 C 104.320312 76.183594 103.535156 76.136719 101.410156 76.648438 Z M 104.828125 79.003906 C 108.753906 80.988281 109.539062 84.132812 106.859375 86.992188 C 103.347656 90.734375 98.359375 90.367188 96.558594 86.257812 C 95.496094 83.851562 95.773438 82.234375 97.484375 80.621094 C 98.589844 79.554688 101.5 78.171875 102.703125 78.078125 C 102.886719 78.078125 103.855469 78.492188 104.828125 79.003906 Z M 104.828125 79.003906 "/>
<path style=" stroke:none;fill-rule:nonzero;fill:rgb(0%,0%,0%);fill-opacity:1;" d="M 156.570312 86.71875 C 156.527344 86.949219 156.480469 88.425781 156.433594 90.089844 C 156.386719 91.753906 156.203125 94.296875 155.96875 95.726562 C 155.648438 97.714844 155.695312 98.40625 156.109375 98.40625 C 157.632812 98.40625 159.296875 88.613281 158.003906 87.085938 C 157.402344 86.347656 156.664062 86.164062 156.570312 86.71875 Z M 156.570312 86.71875 "/>
<path style=" stroke:none;fill-rule:nonzero;fill:rgb(0%,0%,0%);fill-opacity:1;" d="M 134.765625 123.214844 C 134.578125 123.351562 134.441406 125.203125 134.441406 127.328125 C 134.441406 131.4375 134.304688 131.667969 131.625 131.667969 C 130.886719 131.667969 130.285156 131.855469 130.285156 132.132812 C 130.285156 132.78125 131.898438 133.515625 133.425781 133.515625 L 134.8125 133.515625 L 134.859375 137.90625 C 134.902344 142.480469 135.179688 144.421875 135.964844 145.394531 C 137.027344 146.777344 137.257812 145.253906 136.9375 139.664062 C 136.566406 133.195312 136.613281 133.054688 139.664062 133.054688 C 142.34375 133.054688 141.925781 131.808594 139.0625 131.4375 L 136.753906 131.117188 L 136.753906 128.207031 C 136.753906 124.234375 135.875 122.058594 134.765625 123.214844 Z M 134.765625 123.214844 "/>
<path style=" stroke:none;fill-rule:nonzero;fill:rgb(0%,0%,0%);fill-opacity:1;" d="M 107.183594 124.507812 C 107.183594 125.386719 108.847656 126.3125 109.265625 125.664062 C 109.632812 125.0625 108.664062 123.816406 107.828125 123.816406 C 107.460938 123.816406 107.183594 124.140625 107.183594 124.507812 Z M 107.183594 124.507812 "/>
<path style=" stroke:none;fill-rule:nonzero;fill:rgb(0%,0%,0%);fill-opacity:1;" d="M 178.515625 127.925781 C 175.328125 129.867188 173.898438 133.054688 174.3125 137.351562 C 174.5 139.476562 174.867188 140.496094 175.929688 141.789062 C 177.546875 143.773438 180.132812 145.34375 182.535156 145.714844 C 184.707031 146.085938 188.636719 145.253906 189.929688 144.191406 C 190.898438 143.40625 190.804688 143.40625 187.0625 143.589844 C 182.445312 143.820312 179.765625 143.175781 177.777344 141.417969 C 176.4375 140.214844 176.253906 139.800781 176.113281 136.84375 C 175.882812 133.011719 176.761719 130.746094 179.023438 129.359375 C 180.964844 128.15625 182.582031 128.207031 183.738281 129.453125 C 185.214844 131.117188 185.492188 132.5 184.476562 133.609375 C 183.226562 134.996094 180.410156 136.289062 178.5625 136.289062 C 177.453125 136.289062 176.945312 136.472656 176.945312 136.984375 C 176.945312 137.492188 177.5 137.675781 179.164062 137.675781 C 181.75 137.675781 184.84375 136.382812 185.90625 134.859375 C 187.339844 132.824219 186.464844 128.667969 184.382812 127.511719 C 182.953125 126.773438 180.085938 126.957031 178.515625 127.925781 Z M 178.515625 127.925781 "/>
<path style=" stroke:none;fill-rule:nonzero;fill:rgb(0%,0%,0%);fill-opacity:1;" d="M 143.21875 129.128906 C 142.15625 130.421875 142.894531 136.289062 144.511719 139.617188 C 146.960938 144.605469 150.105469 145.484375 153.613281 142.25 C 156.019531 140.03125 156.757812 140.214844 157.542969 143.3125 C 158.050781 145.023438 159.066406 145.992188 159.761719 145.34375 C 159.898438 145.160156 159.574219 143.636719 158.976562 142.019531 C 158.375 140.308594 157.773438 137.257812 157.589844 135.089844 C 157.402344 132.960938 157.03125 130.976562 156.757812 130.699219 C 155.738281 129.683594 155.234375 130.792969 155.234375 134.027344 C 155.234375 137.582031 154.863281 138.554688 152.785156 140.769531 C 150.933594 142.710938 149.273438 142.757812 147.5625 140.957031 C 145.574219 138.832031 144.511719 135.640625 144.558594 131.808594 C 144.558594 128.4375 144.28125 127.835938 143.21875 129.128906 Z M 143.21875 129.128906 "/>
<path style=" stroke:none;fill-rule:nonzero;fill:rgb(0%,0%,0%);fill-opacity:1;" d="M 165.398438 130.101562 C 164.515625 130.515625 163.273438 130.886719 162.625 130.976562 C 161.515625 131.117188 161.46875 131.207031 161.605469 134.027344 C 161.699219 137.027344 163.085938 142.851562 164.148438 144.929688 C 164.65625 145.855469 164.886719 145.945312 165.257812 145.4375 C 165.628906 145.023438 165.488281 143.914062 164.796875 141.371094 C 164.285156 139.476562 163.824219 136.660156 163.824219 135.136719 C 163.777344 132.640625 163.871094 132.363281 165.027344 131.71875 C 166.042969 131.117188 166.644531 131.117188 169.324219 131.625 C 170.988281 131.949219 172.464844 132.132812 172.601562 132.039062 C 173.113281 131.484375 172.140625 130.332031 170.847656 129.867188 C 168.90625 129.175781 167.335938 129.269531 165.398438 130.101562 Z M 165.398438 130.101562 "/>
<path style=" stroke:none;fill-rule:nonzero;fill:rgb(0%,0%,0%);fill-opacity:1;" d="M 44.167969 131.023438 C 42.644531 131.808594 41.582031 132.132812 40.75 131.898438 L 39.59375 131.625 L 39.871094 136.382812 C 40.148438 141.417969 40.933594 144.46875 42.179688 145.253906 C 43.335938 145.992188 43.429688 145.53125 42.734375 142.296875 C 41.351562 135.828125 42.132812 133.148438 45.785156 132.085938 C 47.402344 131.578125 47.773438 131.625 48.878906 132.410156 C 51.003906 133.980469 52.296875 137.167969 52.578125 141.601562 C 52.667969 143.773438 52.945312 145.53125 53.128906 145.53125 C 54.886719 145.53125 54.933594 139.109375 53.175781 135.089844 C 51.050781 130.238281 48.140625 128.898438 44.167969 131.023438 Z M 44.167969 131.023438 "/>
<path style=" stroke:none;fill-rule:nonzero;fill:rgb(0%,0%,0%);fill-opacity:1;" d="M 109.171875 135.460938 C 109.496094 141.511719 110.277344 145.574219 111.203125 145.855469 C 112.3125 146.222656 112.359375 143.542969 111.296875 136.753906 C 110.464844 131.625 110.003906 129.820312 109.539062 129.820312 C 108.984375 129.820312 108.941406 130.792969 109.171875 135.460938 Z M 109.171875 135.460938 "/>
<path style=" stroke:none;fill-rule:nonzero;fill:rgb(0%,0%,0%);fill-opacity:1;" d="M 118.964844 130.421875 C 116.980469 131.347656 114.667969 134.117188 114.300781 136.058594 C 113.144531 142.203125 116.519531 145.761719 123.351562 145.714844 C 125.433594 145.714844 127.28125 145.4375 127.976562 145.023438 C 129.039062 144.421875 128.851562 144.375 124.972656 144.097656 C 118.222656 143.636719 115.960938 142.15625 115.960938 138.140625 C 115.960938 134.164062 119.058594 130.835938 122.152344 131.4375 C 123.863281 131.761719 125.203125 132.917969 125.203125 134.074219 C 125.203125 134.578125 125.433594 134.8125 125.664062 134.671875 C 126.449219 134.210938 126.171875 131.855469 125.296875 131.070312 C 124.09375 130.007812 120.671875 129.683594 118.964844 130.421875 Z M 118.964844 130.421875 "/>
<path style=" stroke:none;fill-rule:nonzero;fill:rgb(0%,0%,0%);fill-opacity:1;" d="M 61.769531 131.4375 C 55.394531 133.703125 54.425781 141.511719 60.0625 144.792969 C 63.433594 146.777344 68.746094 145.484375 71.054688 142.113281 C 73.136719 139.109375 71.886719 133.609375 68.699219 131.667969 C 66.988281 130.605469 64.308594 130.515625 61.769531 131.4375 Z M 67.453125 133.609375 C 69.714844 135.179688 70.871094 136.890625 70.5 138.277344 C 69.761719 141.324219 65.28125 144.421875 62.417969 143.867188 C 60.335938 143.449219 58.351562 141.417969 57.933594 139.292969 C 57.519531 136.890625 58.675781 134.765625 61.167969 133.515625 C 63.617188 132.316406 65.558594 132.363281 67.453125 133.609375 Z M 67.453125 133.609375 "/>
<path style=" stroke:none;fill-rule:nonzero;fill:rgb(0%,0%,0%);fill-opacity:1;" d="M 94.710938 133.472656 C 91.015625 134.210938 88.242188 137.304688 88.242188 140.769531 C 88.242188 144.144531 91.335938 156.988281 92.492188 158.375 C 93.742188 159.851562 93.742188 157.632812 92.398438 149.179688 C 91.660156 144.238281 91.015625 139.664062 91.015625 138.96875 C 91.015625 136.472656 96.003906 134.347656 99.699219 135.320312 C 101.824219 135.921875 103.949219 138.089844 103.949219 139.707031 C 103.949219 142.433594 98.820312 143.726562 95.265625 141.882812 C 92.953125 140.679688 92.859375 140.679688 92.859375 141.742188 C 92.859375 143.542969 94.570312 144.375 98.589844 144.511719 C 101.6875 144.605469 102.5625 144.511719 103.8125 143.726562 C 106.535156 142.019531 106.261719 137.398438 103.347656 135.179688 C 100.898438 133.332031 98.175781 132.824219 94.710938 133.472656 Z M 94.710938 133.472656 "/>
<path style=" stroke:none;fill-rule:nonzero;fill:rgb(0%,0%,0%);fill-opacity:1;" d="M 135.964844 177.269531 C 135.78125 177.683594 135.921875 179.714844 136.242188 181.75 C 136.796875 185.445312 137.492188 190.574219 137.953125 194.410156 C 138.140625 195.703125 138.644531 196.902344 139.523438 197.875 C 140.726562 199.214844 141.09375 199.351562 144.191406 199.492188 C 148.765625 199.722656 151.074219 198.9375 152.089844 196.8125 C 154.351562 192.238281 148.394531 187.109375 141.558594 187.664062 C 139.753906 187.804688 139.015625 187.710938 138.878906 187.25 C 138.738281 186.878906 138.371094 184.339844 138.046875 181.566406 C 137.628906 177.917969 137.304688 176.484375 136.890625 176.484375 C 136.523438 176.484375 136.105469 176.855469 135.964844 177.269531 Z M 147.839844 190.851562 C 152.738281 193.625 151.304688 197.734375 145.4375 197.734375 C 143.125 197.734375 142.574219 197.550781 141.140625 196.304688 C 139.800781 195.101562 139.523438 194.546875 139.523438 193.023438 C 139.523438 192.054688 139.753906 190.761719 140.03125 190.25 C 140.496094 189.417969 140.863281 189.328125 143.21875 189.558594 C 144.792969 189.699219 146.730469 190.25 147.839844 190.851562 Z M 147.839844 190.851562 "/>
<path style=" stroke:none;fill-rule:nonzero;fill:rgb(0%,0%,0%);fill-opacity:1;" d="M 105.796875 178.792969 C 105.796875 179.484375 106.121094 179.714844 106.953125 179.714844 C 108.015625 179.714844 108.0625 179.625 107.648438 178.792969 C 107.367188 178.285156 106.859375 177.871094 106.492188 177.871094 C 106.121094 177.871094 105.796875 178.285156 105.796875 178.792969 Z M 105.796875 178.792969 "/>
<path style=" stroke:none;fill-rule:nonzero;fill:rgb(0%,0%,0%);fill-opacity:1;" d="M 112.820312 188.910156 C 112.867188 194.503906 113.097656 199.214844 113.328125 199.402344 C 113.511719 199.582031 113.929688 199.492188 114.25 199.167969 C 114.667969 198.75 114.808594 196.210938 114.808594 189.972656 C 114.761719 180.734375 114.53125 178.792969 113.375 178.792969 C 112.726562 178.792969 112.683594 179.996094 112.820312 188.910156 Z M 112.820312 188.910156 "/>
<path style=" stroke:none;fill-rule:nonzero;fill:rgb(0%,0%,0%);fill-opacity:1;" d="M 154.863281 188.910156 C 154.953125 194.503906 155.140625 199.214844 155.371094 199.402344 C 155.554688 199.582031 155.96875 199.492188 156.292969 199.167969 C 156.710938 198.75 156.851562 196.164062 156.757812 189.375 C 156.710938 180.367188 156.480469 178.792969 155.140625 178.792969 C 154.863281 178.792969 154.769531 182.765625 154.863281 188.910156 Z M 154.863281 188.910156 "/>
<path style=" stroke:none;fill-rule:nonzero;fill:rgb(0%,0%,0%);fill-opacity:1;" d="M 164.703125 181.335938 C 161.5625 182.445312 158.929688 186.464844 158.929688 190.207031 C 158.929688 193.484375 161.515625 197.273438 164.703125 198.707031 C 167.660156 200.046875 173.710938 199.675781 175.050781 198.015625 C 175.46875 197.550781 174.730469 197.414062 171.03125 197.457031 C 166.042969 197.503906 163.6875 196.71875 162.023438 194.410156 C 160.867188 192.886719 160.5 189.144531 161.191406 186.96875 C 161.976562 184.664062 164.566406 182.488281 166.503906 182.488281 C 168.308594 182.488281 170.015625 184.109375 170.015625 185.816406 C 170.015625 187.941406 165.859375 190.53125 163.039062 190.25 C 162.300781 190.160156 161.929688 190.34375 161.929688 190.804688 C 161.929688 192.5625 167.707031 191.59375 170.109375 189.46875 C 171.261719 188.449219 171.539062 187.851562 171.539062 186.371094 C 171.539062 183.875 171.078125 182.675781 169.875 181.890625 C 168.214844 180.828125 166.691406 180.640625 164.703125 181.335938 Z M 164.703125 181.335938 "/>
<path style=" stroke:none;fill-rule:nonzero;fill:rgb(0%,0%,0%);fill-opacity:1;" d="M 59.503906 182.074219 C 59.042969 182.304688 58.675781 182.859375 58.675781 183.226562 C 58.675781 183.78125 59.042969 183.828125 60.242188 183.644531 C 62.878906 183.136719 65.695312 185.125 66.527344 188.035156 C 66.945312 189.46875 66.945312 189.511719 65.695312 189.234375 C 61.953125 188.40625 60.011719 188.40625 57.933594 189.1875 C 53.359375 190.945312 52.757812 195.796875 56.78125 198.335938 C 59 199.675781 65.1875 199.769531 68.515625 198.519531 C 71.980469 197.183594 71.289062 196.628906 66.664062 197.042969 C 61.355469 197.550781 59.414062 197.457031 57.472656 196.535156 C 52.945312 194.363281 56.964844 189.882812 62.972656 190.480469 C 65.003906 190.667969 65.558594 190.945312 67.222656 192.699219 C 68.28125 193.855469 69.253906 195.054688 69.394531 195.425781 C 69.578125 195.933594 69.808594 195.980469 70.175781 195.65625 C 70.5 195.289062 70.546875 194.363281 70.269531 192.5625 C 69.113281 185.585938 63.246094 179.855469 59.503906 182.074219 Z M 59.503906 182.074219 "/>
<path style=" stroke:none;fill-rule:nonzero;fill:rgb(0%,0%,0%);fill-opacity:1;" d="M 92.261719 182.488281 C 91.246094 183.921875 91.660156 184.382812 93.324219 183.738281 C 94.476562 183.277344 94.988281 183.367188 96.421875 184.109375 C 98.175781 185.078125 99.792969 187.203125 99.792969 188.636719 C 99.792969 189.328125 99.5625 189.417969 98.082031 189.097656 C 97.113281 188.910156 95.125 188.726562 93.648438 188.773438 C 90.550781 188.773438 88.886719 189.742188 87.644531 192.328125 C 86.808594 193.992188 86.808594 194.085938 87.644531 195.75 C 88.9375 198.429688 90.96875 199.351562 95.632812 199.351562 C 98.3125 199.351562 100.253906 199.074219 101.78125 198.519531 C 105.289062 197.132812 104.550781 196.628906 99.699219 197.042969 C 94.0625 197.550781 92.03125 197.414062 90.320312 196.441406 C 89.210938 195.75 88.9375 195.289062 88.9375 193.992188 C 88.9375 192.609375 89.167969 192.328125 91.015625 191.359375 C 95.078125 189.328125 98.960938 190.296875 101.5 193.992188 C 102.242188 195.007812 102.933594 195.839844 103.164062 195.890625 C 103.71875 195.890625 103.535156 192.46875 102.792969 190.019531 C 101.5 185.675781 98.128906 182.164062 94.757812 181.703125 C 93.277344 181.519531 92.859375 181.660156 92.261719 182.488281 Z M 92.261719 182.488281 "/>
<path style=" stroke:none;fill-rule:nonzero;fill:rgb(0%,0%,0%);fill-opacity:1;" d="M 122.292969 182.351562 C 121.089844 183.691406 121.320312 183.96875 123.351562 183.644531 C 125.570312 183.277344 128.066406 184.570312 129.128906 186.648438 C 130.332031 188.957031 130.101562 189.511719 128.113281 189.097656 C 127.144531 188.910156 125.15625 188.726562 123.675781 188.773438 C 120.582031 188.773438 118.917969 189.742188 117.671875 192.328125 C 116.839844 193.992188 116.839844 194.085938 117.671875 195.75 C 118.132812 196.71875 119.195312 197.875 120.027344 198.335938 C 121.921875 199.445312 126.402344 199.863281 129.21875 199.167969 C 135.273438 197.691406 135.691406 196.535156 129.960938 197.042969 C 124.507812 197.597656 122.058594 197.414062 120.398438 196.441406 C 119.242188 195.75 118.964844 195.289062 118.964844 193.992188 C 118.964844 192.609375 119.195312 192.328125 121.042969 191.359375 C 125.109375 189.328125 128.988281 190.296875 131.53125 193.992188 C 132.269531 195.007812 132.960938 195.839844 133.195312 195.890625 C 133.75 195.890625 133.5625 192.46875 132.824219 190.019531 C 131.53125 185.675781 128.15625 182.164062 124.832031 181.703125 C 123.539062 181.519531 122.9375 181.703125 122.292969 182.351562 Z M 122.292969 182.351562 "/>
<path style=" stroke:none;fill-rule:nonzero;fill:rgb(0%,0%,0%);fill-opacity:1;" d="M 107.785156 189.972656 C 108.0625 196.582031 108.664062 199.582031 109.726562 199.582031 C 110.878906 199.582031 110.925781 197.691406 109.957031 192.46875 C 109.445312 189.648438 109.035156 186.601562 109.035156 185.632812 C 109.035156 184.292969 108.847656 183.875 108.292969 183.875 C 107.597656 183.875 107.554688 184.523438 107.785156 189.972656 Z M 107.785156 189.972656 "/>
<path style=" stroke:none;fill-rule:nonzero;fill:rgb(0%,0%,0%);fill-opacity:1;" d="M 72.765625 186.601562 C 72.488281 187.109375 77.152344 196.859375 78.539062 198.660156 C 79.832031 200.324219 80.710938 199.539062 82.328125 195.425781 C 83.019531 193.53125 84.132812 190.945312 84.777344 189.742188 L 85.976562 187.480469 L 84.914062 187.664062 C 83.761719 187.804688 81.773438 191.035156 80.757812 194.363281 C 80.433594 195.472656 80.019531 196.351562 79.878906 196.351562 C 79.1875 196.351562 77.660156 193.949219 76.460938 190.945312 C 74.890625 186.925781 73.550781 185.355469 72.765625 186.601562 Z M 72.765625 186.601562 "/>
</g>
</svg>
