<?xml version="1.0" standalone="no"?>
<!DOCTYPE svg PUBLIC "-//W3C//DTD SVG 20010904//EN"
 "http://www.w3.org/TR/2001/REC-SVG-20010904/DTD/svg10.dtd">
<svg version="1.0" xmlns="http://www.w3.org/2000/svg"
 width="500.000000pt" height="500.000000pt" viewBox="0 0 500.000000 500.000000"
 preserveAspectRatio="xMidYMid meet">

<g transform="translate(0.000000,500.000000) scale(0.100000,-0.100000)"
fill="#000000" stroke="none">
<path d="M2322 4847 c-6 -6 -12 -67 -14 -134 -3 -109 -1 -124 16 -140 18 -17
18 -17 8 2 -6 13 -7 54 -2 115 13 150 -1 135 137 138 88 2 123 -1 130 -10 17
-21 22 -215 7 -236 -10 -14 -35 -18 -136 -23 -68 -3 -103 -6 -78 -7 59 -3 66
-9 66 -59 l1 -43 -141 -1 c-78 0 -161 -4 -186 -7 l-45 -7 -3 -61 -3 -61 118
-9 118 -9 51 46 c57 53 101 69 188 69 74 0 136 -28 173 -79 15 -20 27 -37 28
-37 0 -3 140 16 163 21 16 4 22 13 22 31 0 26 0 26 -72 23 l-73 -4 -3 40 -3
40 -144 -3 -145 -4 0 51 0 51 38 0 c20 0 52 9 70 20 l32 20 0 111 c0 60 -4
119 -10 129 -5 10 -24 23 -41 29 -45 16 -254 15 -267 -2z"/>
<path d="M2362 4695 l3 -100 80 -1 c44 -1 93 0 108 3 l28 5 -3 96 -3 97 -108
0 -108 0 3 -100z m176 55 c3 -29 -36 -93 -59 -98 -26 -5 -84 41 -87 70 -4 30
20 43 50 27 17 -9 24 -7 42 10 27 27 50 23 54 -9z"/>
<path d="M2130 4480 c0 -5 18 -10 40 -10 22 0 40 5 40 10 0 6 -18 10 -40 10
-22 0 -40 -4 -40 -10z"/>
<path d="M2810 4427 c0 -34 4 -35 63 -24 62 12 59 10 51 31 -5 12 -19 16 -60
16 -50 0 -54 -2 -54 -23z"/>
<path d="M2495 4370 c3 -5 15 -10 26 -10 10 0 19 5 19 10 0 6 -12 10 -26 10
-14 0 -23 -4 -19 -10z"/>
<path d="M2455 4361 c-6 -11 9 -23 19 -14 9 9 7 23 -3 23 -6 0 -12 -4 -16 -9z"/>
<path d="M2578 4363 c7 -3 16 -2 19 1 4 3 -2 6 -13 5 -11 0 -14 -3 -6 -6z"/>
<path d="M2620 4351 c0 -12 28 -22 35 -12 3 5 -2 12 -11 15 -21 8 -24 8 -24
-3z"/>
<path d="M2405 4337 c-13 -10 -15 -16 -6 -21 12 -8 41 10 41 25 0 13 -13 11
-35 -4z"/>
<path d="M2469 4315 c-55 -30 -79 -101 -55 -159 29 -69 118 -96 184 -56 41 25
76 98 67 139 -16 72 -126 114 -196 76z"/>
<path d="M2672 4309 c2 -7 10 -15 17 -17 8 -3 12 1 9 9 -2 7 -10 15 -17 17 -8
3 -12 -1 -9 -9z"/>
<path d="M2359 4294 c-11 -13 -10 -17 2 -25 20 -12 26 -11 32 5 9 23 -18 39
-34 20z"/>
<path d="M2076 4271 c-10 -16 5 -19 121 -24 81 -4 103 -2 107 9 4 11 -6 14
-48 14 -29 0 -80 3 -113 6 -40 4 -63 3 -67 -5z"/>
<path d="M2918 4273 c7 -3 16 -2 19 1 4 3 -2 6 -13 5 -11 0 -14 -3 -6 -6z"/>
<path d="M2690 4260 c0 -5 9 -10 21 -10 11 0 17 5 14 10 -3 6 -13 10 -21 10
-8 0 -14 -4 -14 -10z"/>
<path d="M2768 4263 c7 -3 16 -2 19 1 4 3 -2 6 -13 5 -11 0 -14 -3 -6 -6z"/>
<path d="M2326 4234 c-12 -30 -6 -44 18 -44 17 0 25 7 28 24 7 34 -34 52 -46
20z"/>
<path d="M2770 4232 c0 -4 33 -6 73 -4 107 5 114 10 15 11 -49 0 -88 -3 -88
-7z"/>
<path d="M2070 4221 c0 -9 109 -3 119 5 2 2 -23 4 -57 4 -34 0 -62 -4 -62 -9z"/>
<path d="M2700 4201 c0 -10 7 -21 15 -25 11 -4 15 1 15 19 0 16 -6 25 -15 25
-8 0 -15 -9 -15 -19z"/>
<path d="M2168 4203 c-54 -2 -98 -8 -98 -13 0 -5 47 -10 105 -12 95 -3 105 -1
105 15 0 9 -3 16 -7 15 -5 -1 -52 -4 -105 -5z"/>
<path d="M2770 4187 c0 -15 7 -17 53 -12 144 16 159 30 32 30 -75 0 -85 -2
-85 -18z"/>
<path d="M2317 4138 c3 -18 7 -34 9 -36 7 -10 54 33 54 49 0 15 -7 19 -35 19
-34 0 -34 -1 -28 -32z"/>
<path d="M2070 4150 c0 -5 7 -7 15 -4 8 4 15 8 15 10 0 2 -7 4 -15 4 -8 0 -15
-4 -15 -10z"/>
<path d="M2260 4150 c0 -5 5 -10 10 -10 6 0 10 5 10 10 0 6 -4 10 -10 10 -5 0
-10 -4 -10 -10z"/>
<path d="M2683 4144 c-9 -23 19 -38 34 -17 7 9 10 20 7 24 -9 15 -34 10 -41
-7z"/>
<path d="M2844 4153 c-72 -3 -82 -6 -87 -24 -5 -17 -2 -20 21 -15 15 3 57 8
95 11 48 5 67 11 67 21 0 8 -3 13 -7 12 -5 -1 -45 -4 -89 -5z"/>
<path d="M2067 4123 c-19 -18 3 -23 110 -23 67 0 113 4 108 9 -12 10 -209 24
-218 14z"/>
<path d="M2364 4096 c-29 -24 -29 -24 -9 -46 18 -20 20 -21 33 -3 28 38 32 51
18 62 -11 9 -20 6 -42 -13z"/>
<path d="M2647 4093 c-3 -5 -2 -15 3 -22 10 -17 43 -6 38 12 -6 15 -34 22 -41
10z"/>
<path d="M2838 4093 c-70 -3 -100 -8 -108 -19 -7 -8 -11 -17 -8 -20 3 -2 53
-2 112 2 94 6 106 9 106 25 0 11 -1 18 -2 17 -2 -1 -46 -4 -100 -5z"/>
<path d="M2060 4065 c0 -13 21 -15 125 -15 106 0 124 2 119 15 -5 12 -29 15
-125 15 -99 0 -119 -3 -119 -15z"/>
<path d="M2414 4049 c-18 -35 -18 -35 19 -44 26 -7 27 -5 27 28 0 48 -25 56
-46 16z"/>
<path d="M2606 4061 c-7 -11 3 -41 13 -41 18 0 30 24 20 37 -13 15 -26 17 -33
4z"/>
<path d="M2490 4046 c0 -6 -3 -21 -6 -33 -5 -19 -2 -23 19 -23 20 0 26 6 29
29 4 24 0 30 -19 34 -13 2 -23 -1 -23 -7z"/>
<path d="M2550 4025 c0 -26 7 -29 34 -19 12 5 13 9 3 25 -17 27 -37 24 -37 -6z"/>
<path d="M2060 4022 c0 -20 34 -52 65 -61 19 -5 97 -7 177 -3 173 7 144 18
-74 28 -82 3 -148 10 -148 15 0 5 59 9 131 9 84 0 128 4 124 10 -7 12 -275 14
-275 2z"/>
<path d="M2858 4023 c12 -2 30 -2 40 0 9 3 -1 5 -23 4 -22 0 -30 -2 -17 -4z"/>
<path d="M2671 4011 c-9 -6 9 -7 50 -4 35 3 66 7 68 9 10 9 -105 3 -118 -5z"/>
<path d="M2889 3986 c-2 -2 -73 -6 -157 -9 -84 -3 -156 -7 -159 -11 -4 -3 63
-6 148 -6 121 0 159 3 175 15 10 8 14 15 8 15 -6 0 -13 -2 -15 -4z"/>
<path d="M1693 3475 c-66 -28 -79 -96 -28 -147 13 -13 80 -54 149 -91 69 -38
131 -78 137 -89 15 -27 3 -65 -24 -80 -25 -14 -148 -16 -220 -5 -61 10 -114
55 -123 103 -7 39 -18 43 -34 14 -25 -47 59 -126 162 -150 157 -38 288 3 288
89 0 52 -39 85 -188 161 -131 66 -164 99 -143 139 25 46 152 56 216 16 40 -24
75 -32 75 -17 0 15 -44 49 -79 61 -46 15 -149 13 -188 -4z"/>
<path d="M2488 3350 c-26 -9 -50 -19 -53 -22 -9 -9 13 -151 34 -218 26 -83 36
-99 52 -83 9 9 5 33 -15 103 -40 138 -34 182 27 203 16 6 77 -3 130 -19 25 -8
22 22 -5 40 -29 21 -108 19 -170 -4z"/>
<path d="M2781 3355 c-18 -8 -42 -15 -52 -15 -16 0 -19 -7 -19 -40 0 -95 56
-290 80 -275 14 9 12 46 -5 96 -63 176 -32 235 105 203 67 -15 76 -14 66 11
-13 35 -113 46 -175 20z"/>
<path d="M3280 3259 c0 -107 -2 -117 -22 -136 -117 -106 -217 -31 -243 181 -4
31 -11 56 -15 56 -27 0 -20 -124 10 -196 26 -60 76 -112 118 -124 32 -8 44 -6
88 15 59 29 80 31 88 9 19 -49 -12 -303 -43 -344 -10 -14 -29 -31 -43 -39 -36
-20 -78 -1 -150 68 l-58 54 0 -29 c0 -16 7 -39 15 -51 24 -34 109 -83 156 -89
39 -5 49 -3 76 20 39 33 58 81 74 186 14 99 7 304 -16 429 -23 128 -35 125
-35 -10z"/>
<path d="M2195 3341 c-139 -34 -198 -167 -117 -263 105 -125 334 -29 309 129
-9 51 -53 112 -92 129 -37 15 -54 16 -100 5z m74 -51 c85 -43 102 -111 44
-173 -76 -81 -184 -73 -223 16 -23 52 -17 87 20 122 24 23 87 53 113 55 4 0
25 -9 46 -20z"/>
<path d="M3389 3123 c-1 -5 -2 -37 -3 -73 -1 -36 -5 -91 -10 -122 -7 -43 -6
-58 3 -58 33 0 69 212 41 245 -13 16 -29 20 -31 8z"/>
<path d="M2917 2333 c-4 -3 -7 -43 -7 -89 0 -89 -3 -94 -61 -94 -16 0 -29 -4
-29 -10 0 -14 35 -30 68 -30 l30 0 1 -95 c1 -99 7 -141 24 -162 23 -30 28 3
21 124 -8 140 -7 143 59 143 58 0 49 27 -13 35 l-50 7 0 63 c0 86 -19 133 -43
108z"/>
<path d="M2320 2305 c0 -19 36 -39 45 -25 8 13 -13 40 -31 40 -8 0 -14 -7 -14
-15z"/>
<path d="M3864 2231 c-69 -42 -100 -111 -91 -204 4 -46 12 -68 35 -96 35 -43
91 -77 143 -85 47 -8 132 10 160 33 21 17 19 17 -62 13 -100 -5 -158 9 -201
47 -29 26 -33 35 -36 99 -5 83 14 132 63 162 42 26 77 25 102 -2 32 -36 38
-66 16 -90 -27 -30 -88 -58 -128 -58 -24 0 -35 -4 -35 -15 0 -11 12 -15 48
-15 56 0 123 28 146 61 31 44 12 134 -33 159 -31 16 -93 12 -127 -9z"/>
<path d="M3100 2205 c-23 -28 -7 -155 28 -227 53 -108 121 -127 197 -57 52 48
68 44 85 -23 11 -37 33 -58 48 -44 3 4 -4 37 -17 72 -13 37 -26 103 -30 150
-4 46 -12 89 -18 95 -22 22 -33 -2 -33 -72 0 -77 -8 -98 -53 -146 -40 -42 -76
-43 -113 -4 -43 46 -66 115 -65 198 0 73 -6 86 -29 58z"/>
<path d="M3580 2184 c-19 -9 -46 -17 -60 -19 -24 -3 -25 -5 -22 -66 2 -65 32
-191 55 -236 11 -20 16 -22 24 -11 8 9 5 33 -10 88 -11 41 -21 102 -21 135 -1
54 1 60 26 74 22 13 35 13 93 2 36 -7 68 -11 71 -9 11 12 -10 37 -38 47 -42
15 -76 13 -118 -5z"/>
<path d="M956 2164 c-33 -17 -56 -24 -74 -19 l-25 6 6 -103 c6 -109 23 -175
50 -192 25 -16 27 -6 12 64 -30 140 -13 198 66 221 35 11 43 10 67 -7 46 -34
74 -103 80 -199 2 -47 8 -85 12 -85 38 0 39 139 1 226 -46 105 -109 134 -195
88z"/>
<path d="M2363 2068 c7 -131 24 -219 44 -225 24 -8 25 50 2 197 -18 111 -28
150 -38 150 -12 0 -13 -21 -8 -122z"/>
<path d="M2575 2177 c-43 -20 -93 -80 -101 -122 -25 -133 48 -210 196 -209 45
0 85 6 100 15 23 13 19 14 -65 20 -146 10 -195 42 -195 129 0 86 67 158 134
145 37 -7 66 -32 66 -57 0 -11 5 -16 10 -13 17 10 11 61 -8 78 -26 23 -100 30
-137 14z"/>
<path d="M1337 2155 c-138 -49 -159 -218 -37 -289 73 -43 188 -15 238 58 45
65 18 184 -51 226 -37 23 -95 25 -150 5z m123 -47 c49 -34 74 -71 66 -101 -16
-66 -113 -133 -175 -121 -45 9 -88 53 -97 99 -9 52 16 98 70 125 53 26 95 25
136 -2z"/>
<path d="M2050 2111 c-80 -16 -140 -83 -140 -158 0 -73 67 -351 92 -381 27
-32 27 16 -2 199 -16 107 -30 206 -30 221 0 54 108 100 188 79 46 -13 92 -60
92 -95 0 -59 -111 -87 -188 -47 -50 26 -52 26 -52 3 0 -39 37 -57 124 -60 67
-2 86 0 113 17 59 37 53 137 -10 185 -53 40 -112 51 -187 37z"/>
<path d="M2943 1163 c-4 -9 -1 -53 6 -97 12 -80 27 -191 37 -274 4 -28 15 -54
34 -75 26 -29 34 -32 101 -35 99 -5 149 12 171 58 49 99 -80 210 -228 198 -39
-3 -55 -1 -58 9 -3 8 -11 63 -18 123 -9 79 -16 110 -25 110 -8 0 -17 -8 -20
-17z m257 -294 c106 -60 75 -149 -52 -149 -50 0 -62 4 -93 31 -29 26 -35 38
-35 71 0 21 5 49 11 60 10 18 18 20 69 15 34 -3 76 -15 100 -28z"/>
<path d="M2290 1130 c0 -15 7 -20 25 -20 23 0 24 2 15 20 -6 11 -17 20 -25 20
-8 0 -15 -9 -15 -20z"/>
<path d="M2442 911 c1 -121 6 -223 11 -227 4 -4 13 -2 20 5 9 9 12 64 12 199
-1 200 -6 242 -31 242 -14 0 -15 -26 -12 -219z"/>
<path d="M3352 911 c2 -121 6 -223 11 -227 4 -4 13 -2 20 5 9 9 12 65 10 212
-1 195 -6 229 -35 229 -6 0 -8 -86 -6 -219z"/>
<path d="M3565 1075 c-68 -24 -125 -111 -125 -192 0 -71 56 -153 125 -184 64
-29 195 -21 224 15 9 10 -7 13 -87 12 -108 -1 -159 16 -195 66 -25 33 -33 114
-18 161 17 50 73 97 115 97 39 0 76 -35 76 -72 0 -46 -90 -102 -151 -96 -16 2
-24 -2 -24 -12 0 -38 125 -17 177 29 25 22 31 35 31 67 0 54 -10 80 -36 97
-36 23 -69 27 -112 12z"/>
<path d="M1288 1059 c-10 -5 -18 -17 -18 -25 0 -12 8 -13 34 -9 57 11 118 -32
136 -95 9 -31 9 -32 -18 -26 -81 18 -123 18 -168 1 -99 -38 -112 -143 -25
-198 48 -29 182 -31 254 -4 75 29 60 41 -40 32 -115 -11 -157 -9 -199 11 -98
47 -11 144 119 131 44 -4 56 -10 92 -48 23 -25 44 -51 47 -59 4 -11 9 -12 17
-5 7 8 8 28 2 67 -25 151 -152 275 -233 227z"/>
<path d="M1997 1050 c-22 -31 -13 -41 23 -27 25 10 36 8 67 -8 38 -21 73 -67
73 -98 0 -15 -5 -17 -37 -10 -21 4 -64 8 -96 7 -67 0 -103 -21 -130 -77 -18
-36 -18 -38 0 -74 28 -58 72 -78 173 -78 58 0 100 6 133 18 76 30 60 41 -45
32 -122 -11 -166 -8 -203 13 -24 15 -30 25 -30 53 0 30 5 36 45 57 88 44 172
23 227 -57 16 -22 31 -40 36 -41 12 0 8 74 -8 127 -28 94 -101 170 -174 180
-32 4 -41 1 -54 -17z"/>
<path d="M2647 1053 c-26 -29 -21 -35 23 -28 48 8 102 -20 125 -65 26 -50 21
-62 -22 -53 -21 4 -64 8 -96 7 -67 0 -103 -21 -130 -77 -18 -36 -18 -38 0 -74
10 -21 33 -46 51 -56 41 -24 138 -33 199 -18 131 32 140 57 16 46 -118 -12
-171 -8 -207 13 -25 15 -31 25 -31 53 0 30 5 36 45 57 88 44 172 23 227 -57
16 -22 31 -40 36 -41 12 0 8 74 -8 127 -28 94 -101 170 -173 180 -28 4 -41 0
-55 -14z"/>
<path d="M2333 888 c6 -143 19 -208 42 -208 25 0 26 41 5 154 -11 61 -20 127
-20 148 0 29 -4 38 -16 38 -15 0 -16 -14 -11 -132z"/>
<path d="M1575 961 c-6 -11 95 -222 125 -261 28 -36 47 -19 82 70 15 41 39 97
53 123 l26 49 -23 -4 c-25 -3 -68 -73 -90 -145 -7 -24 -16 -43 -19 -43 -15 0
-48 52 -74 117 -34 87 -63 121 -80 94z"/>
</g>
</svg>
